<?xml version="1.0" encoding="UTF-8"?>
<svg id="_레이어_1" data-name="레이어_1" xmlns="http://www.w3.org/2000/svg" version="1.1" viewBox="0 0 48 136">
  <!-- Generator: Adobe Illustrator 29.5.1, SVG Export Plug-In . SVG Version: 2.1.0 Build 141)  -->
  <path d="M15.55,67.94s.67.06.57-.06c-.21-.26-.96-1-1.16-1.27C3.41,51.4,1.87,33.33,1.04,14.77.89,11.51,0,5.28.6,2.36,1.06.12,3.32-.08,4.14,2.07c.17,4.63-.21,9.3,0,13.92.25,5.59,1.07,11.55,1.9,17.06,1.87,12.43,5.05,26.82,15.51,34.89h12.12c-.28-1.18-.52-2.44-.83-3.61-5.24-20.13-6.13-41.11-6.36-62.01.72-2.42,2.89-2.34,3.6-.03.12,5.2-.2,10.43-.02,15.62.47,14,2.47,31.85,6.07,45.29.4,1.51.93,3.06,1.48,4.52.8.64,7.06-.08,8.66.22.53.1.86.59,1.2.96l.14,15.73c-.01.69-.61,1.16-1.14,1.5l-9.32.04c-.54.07-.8.91-1,1.4-3.48,8.74-5.41,26.35-6.08,35.92-.14,2,.1,10.16-.8,11.33-1.05,1.36-2.88.57-3.05-1.01-.44-4.04.39-8.47.72-12.49.79-9.8,1.77-19.9,4.14-29.46.42-1.69.99-3.7,1.76-5.21l-.26-.49h-10.32c-.35,0-2.86,2.34-3.25,2.76-7.93,8.53-11.59,27-12.24,38.93-.1,1.75.54,7.34-2.05,7.51-2.94.19-1.43-5.64-1.3-7.32,1.01-13.65,3.42-27.63,11.05-39.35l2.15-2.53-5.95-.15c-1.75-.25-2.76-1.09-3.05-1.29-4.99-3.57-5.05-12.29.39-15.44.36-.21,1.85-1.06,3.22-1.23s2.87-.15,4.31-.12ZM44.23,71.54H11.47c-1.49.12-2.53,1.36-3,2.04-1.26,1.81-1.25,5.14,0,6.95.51.75,2.36,2.28,3.24,2.28h32.52v-11.28Z"/>
</svg>