<?xml version="1.0" encoding="UTF-8"?>
<svg id="_레이어_1" data-name="레이어_1" xmlns="http://www.w3.org/2000/svg" version="1.1" viewBox="0 0 53 69">
  <!-- Generator: Adobe Illustrator 29.5.1, SVG Export Plug-In . SVG Version: 2.1.0 Build 141)  -->
  <path d="M39.06,15.43c3.23,5.55,4.59,8.05,4.22,14.85-.16,2.91-1.1,5.71-1.41,8.43-.21,1.88.41,3.27,1.33,4.86,3.43,5.94,12.86,14.78,8.73,21.99-1.65,2.88-4.59,3.77-7.77,2.97-7.31-1.83-9.99-14.07-13.58-19.79-1.98-3.15-9.35-4.8-12.93-6.74C8.47,37.05,5.3,26.25.09,17.79c-.42-1.35,1.15-2.21,2.17-2.84,6.87-4.23,15.28-8.51,22.53-12.49,1.58-.87,4.96-3.63,6.39-1.39,2.03,3.49,5.11,9.63,7.87,14.37ZM28.89,4.37l-3.1,1.7c-.25.17-.86.66-.9.92-.04.3,1.23,3.42,1.47,3.96.41.91,1.9,3.07,1.99,3.79.31,2.39-2.72,3.05-3.72.81l-3.09-7.24-3.2,1.96c-.15.27,1.11,3.42,1.37,3.96.46.97,2.26,3.46,2.4,4.1.37,1.8-2,3.09-3.29,1.59-.38-.45-1.24-2.12-1.56-2.76-.81-1.59-1.44-3.34-2.07-5.01l-3.07,1.83c-.06.31,1.33,3.29,1.6,3.84.47.97,2.08,3.24,2.19,4.07.13.96-1.1,2.5-2.17,2.16-1.65-.52-4.09-6.86-4.92-8.54l-4.33,2.65,6.98,12.47,24.24-13.43M37.66,20.36l-.3.14-23.83,13.38c2.15,2.85,4.99,4.73,8.23,6.16,4.13,1.82,9.13,2.37,11.75,6.5s6.1,15.03,9.8,17.55c.58.4,2.74,1.33,3.36,1.23,1.76-.29,2.55-2.26,2.57-3.84.03-2.42-1.19-4.18-2.44-6.15-3.19-5.04-9.07-10.89-8.53-17.1.43-4.97,2.31-8.59,1.12-13.89-.26-1.18-1.03-2.91-1.73-3.98Z"/>
</svg>