<?xml version="1.0" encoding="UTF-8"?>
<svg id="_레이어_1" data-name="레이어_1" xmlns="http://www.w3.org/2000/svg" version="1.1" viewBox="0 0 106 89">
  <!-- Generator: Adobe Illustrator 29.5.1, SVG Export Plug-In . SVG Version: 2.1.0 Build 141)  -->
  <path d="M13.83,88.78c-.6-.76-1.22-1.15-.96-2.27l2.86-17.24c-4.54-4.02-7.17-9.7-8.75-15.51-2.78-10.25-3.61-21.26-4.91-31.81-.5-4.04-1.38-8.19-1.68-12.24C.03,4.75,1.03,1.31,6.32.28l37.63-.06c9.38,1.58,9.18,13.75,10.63,21.16.71,3.64.91,6.8,1.94,11.07,1.65,6.82,2.65,15.9,10.24,16.96,9.58.6,20.04-.75,29.52,0s11.82,12.08,7.37,18.91c-.7,1.07-2.23,3.12-4.75,3.55l-5.64.11v.83s.02,15.08.02,15.08l-.97.89h-1.92l-.97-1.79v-15.01s-34.79.12-34.79.12l.02.51c.04,4.14.04,6.77.12,10.13.05,2.02.18,5.29-.99,6.04h-1.55c-.65-.68-.85-1.36-.96-2.28-.53-4.77,0-9.73-.36-14.41l-27.16-.09c-3.05-.37-4.54-2-5.07,1.13-.68,3.93-1.24,7.79-1.95,11.73-.27,1.48.23,2.68-1.23,3.93h-1.68ZM59.46,49.42h0c-5.5-5.15-7.25-23.93-9.21-33.9-.84-4.25-1.81-11.22-7.26-11.7l-36.54.2c-.84.25-2.06,1.26-2.34,2.09-.15.45.06,3.84.12,4.56.65,8.06,2.13,16.97,3.29,25.03,1.54,10.66,3.04,31.87,17.22,32.7h71.54c2.13-.14,3.27-.39,4.43-2.29,2.64-4.34,1.85-11.92-3.95-12.85h-58.81c-1.95-.94-1.46-3.2.49-3.82,6.98.12,13.47-.02,21.02-.02Z"/>
</svg>