<?xml version="1.0" encoding="UTF-8"?>
<svg id="_레이어_1" data-name="레이어_1" xmlns="http://www.w3.org/2000/svg" version="1.1" viewBox="0 0 167 115">
  <!-- Generator: Adobe Illustrator 29.5.1, SVG Export Plug-In . SVG Version: 2.1.0 Build 141)  -->
  <path d="M120.41,41.78c1.08-.85,2.93-.17,3.06,1.23l-.14,21.73c-.9,1.38-2.7,1.37-3.59,0l-.14-21.49c0-.39.55-1.28.8-1.47Z"/>
  <path d="M98.66,41.78c1.08-.85,2.93-.17,3.06,1.23l-.14,21.73c-.9,1.38-2.7,1.37-3.59,0l-.14-21.49c0-.39.55-1.28.8-1.47Z"/>
  <path d="M155.99.42L10.37.5C5.34.75,1.33,4.58.33,9.42v96.26c1.02,4.88,4.8,8.25,9.72,9h146.66c5.61-.82,9.36-5.11,9.96-10.68V11.58c-.62-6.14-4.31-10.75-10.68-11.16ZM54.1,110.83H9.58c-.78,0-3.54-2.13-4.09-2.87-.25-.34-1.55-3.3-1.55-3.49V10.39c0-.12.78-2.1.86-2.26.62-1.21,3.7-3.86,5.02-3.86h44.28v106.56ZM108.58,110.83h-50.64V4.27h50.64v106.56ZM162.82,103.51c-.29,2.48-1.27,4.78-3.42,6.18-.31.21-2.27,1.14-2.46,1.14h-44.52V4.27h44.52c2,.36,4.51,2.76,5.17,4.67.95,2.77.4,4.39.46,6.96.73,29.14-.03,58.42.25,87.61Z"/>
</svg>