<?xml version="1.0" encoding="UTF-8"?>
<svg id="_레이어_1" data-name="레이어_1" xmlns="http://www.w3.org/2000/svg" version="1.1" viewBox="0 0 88 81">
  <!-- Generator: Adobe Illustrator 29.5.1, SVG Export Plug-In . SVG Version: 2.1.0 Build 141)  -->
  <path d="M51,25.86c.47.51.99,1.83,1.2,2.52,1.25,3.98.33,8.23.56,12.4.33,5.83,2.26,10.94,2.15,17.04-.16,9.55-7.15,18.18-15.86,21.82-7.49,3.12-13.6-1.43-21.45-.81-2.7.21-5.74,1.63-8.4,1.43-3.11-.23-6.6-2.36-7.06-5.66.04-3.66.42-7.35.22-11.02-.33-5.86-2.26-10.93-2.15-17.04.21-12.76,12.31-23.33,24.84-23.88,4.67-.2,9.51,1.97,13.94,2.38,3.31.3,7.4-.42,10.55,0,.49.07,1.14.47,1.46.82ZM48.41,28.69c-2.74-.17-5.52.11-8.26-.02-5.45-.27-10.94-2.71-16.28-2.14-10.28,1.09-19.99,10.05-20.08,20.73-.04,5.04,1.76,9.68,2.17,14.41.34,3.98-.51,8.91,0,12.73.28,2.16,3.78,2.2,5.42,2.04,1.34-.13,3.41-1.05,4.8-1.2,4.37-.47,7.35.2,11.38,1.07,7.19,1.56,10.59.77,16.14-3.98,7.1-6.07,8.41-12.3,7.09-21.4-.39-2.64-1.39-5.64-1.61-8.23-.31-3.66.4-7.93,0-11.52-.1-.87-.15-2.55-.75-2.49Z"/>
  <path d="M87.59,12.33c-1.12-1.54-3.15-1.62-4.85-2.47-2.28-1.13-3.71-2.57-4.61-4.99-.83-2.25-.98-5.36-3.11-4.58-1.2.44-1.53,3.34-1.9,4.41-.73,2.1-2.55,4.11-4.52,5.08-1.02.5-4.51,1.69-5.18,2.44-1.15,1.29.41,2.48,1.93,2.92.41.12,1.03.23,1.41.37,3.31,1.23,5.92,4.14,6.84,7.56.26.97.44,2.12,1.08,2.52,2.24,1.44,3.15-2.91,4.09-4.91,1.02-2.18,2.27-3.4,4.44-4.44,1.5-.72,3.01-.94,4.06-1.87.26-.25.26-.28.31-.36.58-.87,0-1.68,0-1.68ZM81.08,13.24c-2.5.78-4.11,3.35-5.37,5.57-1-1.66-2.01-2.85-3.66-4.16-.8-.63-2.56-1.36-1.47-1.87,1.67-.92,3.49-2.38,4.4-4.07.36-.66.48-1.56.95-.69.4.87,1.31,1.99,1.91,2.61.86.9,1.8,1.49,2.92,2.17.28.17.8.3.33.42Z"/>
</svg>