<?xml version="1.0" encoding="UTF-8"?>
<svg id="_레이어_1" data-name="레이어_1" xmlns="http://www.w3.org/2000/svg" version="1.1" viewBox="0 0 57 77">
  <!-- Generator: Adobe Illustrator 29.5.1, SVG Export Plug-In . SVG Version: 2.1.0 Build 141)  -->
  <path d="M5.23,65.24c-2.38-.07-4.83-.41-5.08-3.23-.1-1.07.32-3.87.55-5,1.64-8.25,7.35-15.93,14.91-19.65,1.65-.81,2.91-1.39,5.09-2.11-1.08-4.44,1.17-8.32,5.76-9.12l.1-24.38c.19-1.41,1.2-1.47,1.66-1.62l.62.03c.63.04,1.56.78,1.58,1.82l.09,24.15c4.63.75,7.5,4.62,6.48,9.34,2.8,1.16,5.41,2.36,7.89,4.12,6.56,4.66,11.23,12.46,11.92,20.48.17,1.99.17,4.87-2.09,5.11l-13.03.16c-.69.58-.33,1.5-.49,2.16-2.27,9.07-13.47,12.34-20.63,6.26-2.46-2.09-4.26-5.32-5.02-8.42M33.28,34.63c.37-2,.26-3.59-1.43-4.76-2.44-1.69-7.73-.95-7.97,2.81-.03.51-.07,1.2.11,1.94,2.95-.47,6.49-.41,9.29.01ZM4,61.64h47.88c.18,0,.5.04.88-.12.42-.18.45-.54.46-.95.03-.93-.99-5.11-1.34-6.13-7.97-23.02-42.85-21.57-47.42,3.71-.21,1.16-.44,1.84-.46,3.5ZM37.6,65.24h-18c.27,2.54,2.64,5.52,4.83,6.81.88.52,2.91,1.27,3.92,1.36,4.24.35,9.39-3.7,9.25-8.17Z"/>
</svg>