<?xml version="1.0" encoding="UTF-8"?>
<svg id="_레이어_1" data-name="레이어_1" xmlns="http://www.w3.org/2000/svg" version="1.1" viewBox="0 0 45 41">
  <!-- Generator: Adobe Illustrator 29.5.1, SVG Export Plug-In . SVG Version: 2.1.0 Build 141)  -->
  <path d="M0,28.15v4.32c.6-.84,1.57-.91,2.45-1.39,5.41-2.94,10.94-5.66,16.34-8.63l.49-.27,19.74,11.47c1.19.79,2.16,1.48,1.77,3.26H0v3.85h.36s41.04,0,41.04,0c1.63-.24,2.42-1.41,2.68-1.75.88-1.16.78-2.64.49-4.06-.96-4.75-9.49-7.16-12.85-10l-10.48-6.02v-2.75c0-.96.9-1.32,1.42-1.67,6.61-4.48,3.27-15.5-5.91-14.17-2.57.37-5.17,2.9-5.7,5.33-.38,1.74-.45,4.36,1.88,3.7,1.08-.31,1.47-3.03,2.28-4.04,1.4-1.75,4.92-1.86,6.3.01,1.09,1.47,1.2,4.15.02,5.58-.79.95-2.38,1.85-3.3,2.52-1.31.95-1.09,3.6-1.03,5.38"/>
</svg>